<?xml version="1.0" encoding="utf-8"?>
<!-- Generator: Adobe Illustrator 16.0.0, SVG Export Plug-In . SVG Version: 6.00 Build 0)  -->
<!DOCTYPE svg PUBLIC "-//W3C//DTD SVG 1.1//EN" "http://www.w3.org/Graphics/SVG/1.1/DTD/svg11.dtd">
<svg version="1.1" id="Layer_1" xmlns="http://www.w3.org/2000/svg" xmlns:xlink="http://www.w3.org/1999/xlink" x="0px" y="0px"
	 width="739.113px" height="208.194px" viewBox="0 0 739.113 208.194" enable-background="new 0 0 739.113 208.194"
	 xml:space="preserve">
<path fill="#FFFFFF" d="M528.544,139.722c-6.557,7.26-15.769,11.44-24.836,11.44c-6.273,0-11.699-0.972-15.328-3.067
	c0,0.701-0.694,4.184-1.11,6.137l-9.755,39.303l-15.615,3.629l22.017-97.035c1.813-8.504,1.392-12.964,0-17.429l14.222-5.855
	c1.399,2.794,2.233,7.948,1.536,12.828c6.131-7.39,15.341-11.993,23.697-11.993c11.996,0,18.541,8.922,18.541,23.012
	C541.912,113.236,536.487,130.81,528.544,139.722z M517.237,90.644c-5.564,0-12.818,4.189-19.1,13.11l-6.838,32.074
	c2.24,2.233,6.987,3.617,11.577,3.617c6.287,0,11.165-3.479,13.943-7.523c5.304-7.814,8.507-21.753,8.507-30.669
	C525.327,93.861,522.952,90.644,517.237,90.644"/>
<path fill="#FFFFFF" d="M607.755,98.873l-5.721,27.895c-1.806,8.494-0.961,12.133,2.52,15.895l-12.557,9.34
	c-3.751-3.072-5.304-6.971-5.304-11.57c-5.012,6.825-12.13,10.871-21.191,10.871c-11.021,0-18.389-7.394-18.389-22.448
	c0-15.618,5.848-30.672,14.904-40.021c7.529-7.666,16.716-11.426,28.023-11.426c8.081,0,16.33,1.667,21.899,5.293
	C610.677,86.603,608.735,93.861,607.755,98.873z M588.246,89.527c-6.281,0-10.743,1.407-16.188,7.815
	c-6.265,7.54-9.201,21.189-9.201,31.093c0,7.67,2.506,10.596,7.662,10.596c6.429,0,13.535-6.41,16.736-13.516l7.542-34.581
	C593.394,90.092,590.594,89.527,588.246,89.527"/>
<path fill="#FFFFFF" d="M671.338,93.444c-5.856-3.352-11.305-4.884-16.869-4.884c-7.384,0-12.843,2.792-12.843,8.639
	c0,3.772,1.972,6.141,7.539,8.231l8.352,3.204c8.662,3.346,14.379,8.363,14.379,16.736c0,14.496-11.862,26.354-32.643,26.354
	c-9.76,0-18.816-2.795-26.067-7.393l6.12-11.299c5.882,4.053,14.094,6.98,22.053,6.98c7.676,0,13.533-4.324,13.533-10.182
	c0-4.461-2.523-6.691-8.938-9.203l-8.082-3.067c-8.379-3.212-13.243-8.081-13.243-16.869c0-12.267,10.182-23.989,30.798-23.989
	c8.379,0,16.469,2.508,22.051,5.998L671.338,93.444z"/>
<path fill="#FFFFFF" d="M732.965,93.444c-5.845-3.352-11.271-4.884-16.86-4.884c-7.376,0-12.838,2.792-12.838,8.639
	c0,3.772,1.979,6.141,7.551,8.231l8.365,3.204c8.643,3.346,14.357,8.363,14.357,16.736c0,14.496-11.846,26.354-32.621,26.354
	c-9.778,0-18.83-2.795-26.089-7.393l6.131-11.299c5.865,4.053,14.088,6.98,22.045,6.98c7.665,0,13.521-4.324,13.521-10.182
	c0-4.461-2.508-6.691-8.929-9.203l-8.075-3.067c-8.382-3.212-13.252-8.081-13.252-16.869c0-12.267,10.174-23.989,30.807-23.989
	c8.379,0,16.463,2.508,22.036,5.998L732.965,93.444z"/>
<path fill="#FFFFFF" d="M295.586,130.455c-0.995,2.411-2.839,6.248-6.388,10.229c-2,2.14-8.525,9.365-23.16,9.365
	c-22.423,0-32.232-17.183-32.232-36.071c0-22.435,14.773-34.938,31.246-34.938c20.463,0,31.109,17.893,30.534,35.507h-52.552
	c-0.133,3.551,0.143,8.801,2.123,14.068c5.403,13.914,18.044,13.914,20.881,13.914c7.389,0,15.924-2.554,21.735-14.211
	L295.586,130.455 M286.067,107.732c-0.717-5.969-2.55-11.788-7.105-16.049c-2.834-2.559-7.388-5.112-14.058-5.112
	c-11.641,0-20.17,8.234-21.728,21.161H286.067"/>
<path fill="#FFFFFF" d="M356.705,148.351h-8.374v-12.21c-0.577,1.42-1.563,3.689-3.408,6.104
	c-5.245,6.534-12.651,7.673-18.053,7.673c-13.063,0-18.597-8.239-20.297-12.507c-2.278-5.251-2.42-12.212-2.42-23.572V80.605h8.379
	v35.078c0.147,14.771,0.147,26.562,15.353,26.562c3.812,0,9.507-0.566,14.332-5.685c5.954-6.25,6.114-13.492,6.114-26.131V80.605
	h8.374V148.351"/>
<path fill="#FFFFFF" d="M378.46,148.351h-8.223V80.605h8.223v10.792c4.271-8.948,11.369-11.925,19.756-11.925
	c1.989,0,2.976,0.138,4.687,0.421v7.523c-2.562-0.422-2.848-0.422-5.104-0.422c-2.28,0-8.956,0.147-13.938,5.396
	c-5.245,5.829-5.245,12.786-5.401,26.706V148.351"/>
<path fill="#FFFFFF" d="M432.64,150.048c-19.747,0-30.549-15.615-30.549-34.648c0-17.609,8.955-36.361,30.821-36.361
	c21.458,0,30.543,17.614,30.679,35.078C463.719,134.716,451.801,150.048,432.64,150.048 M433.065,86.147
	c-5.982,0-11.791,2.416-15.636,6.953c-5.826,6.824-6.384,16.9-6.384,22.445c0,19.313,9.932,27.119,21.594,27.119
	c14.899,0,21.861-11.784,21.998-27.542C454.638,111.28,454.926,86.147,433.065,86.147"/>
<g>
	<polyline fill="#FFCB05" points="25.551,54.763 33.257,54.763 27.051,59.423 29.448,66.814 23.275,62.254 17.085,66.814 
		19.519,59.423 13.255,54.763 20.944,54.763 23.275,47.56 25.551,54.763 	"/>
	<polyline fill="#FFCB05" points="54.766,22.314 63.259,22.314 56.407,27.445 59.063,35.589 52.251,30.569 45.434,35.589 
		48.126,27.445 41.23,22.314 49.689,22.314 52.251,14.379 54.766,22.314 	"/>
	<polyline fill="#FFCB05" points="101.407,11.09 113.271,11.09 103.708,18.265 107.414,29.634 97.891,22.629 88.378,29.634 
		92.126,18.265 82.488,11.09 94.315,11.09 97.891,0 101.407,11.09 	"/>
	<polyline fill="#FFCB05" points="13.591,131.751 19.647,131.751 14.766,135.405 16.652,141.203 11.802,137.632 6.945,141.203 
		8.862,135.405 3.95,131.751 9.984,131.751 11.802,126.103 13.591,131.751 	"/>
	<polyline fill="#FFCB05" points="9.638,93.076 15.699,93.076 10.815,96.73 12.71,102.528 7.859,98.957 3.012,102.528 4.92,96.73 
		0,93.076 6.028,93.076 7.859,87.422 9.638,93.076 	"/>
	<polyline fill="#FFCB05" points="29.551,159.369 35.024,159.903 30.293,162.784 31.49,168.195 27.412,164.539 22.706,167.348 
		24.95,162.273 20.819,158.531 26.271,159.058 28.429,154.107 29.551,159.369 	"/>
	<polyline fill="#FFCB05" points="55.085,173.936 60.558,174.463 55.835,177.35 57.035,182.758 52.957,179.104 48.248,181.912 
		50.49,176.836 46.356,173.09 51.807,173.615 53.963,168.668 55.085,173.936 	"/>
	<g>
		<path fill="#FFCB05" d="M267.397,21.693l-4.929,1.705l-13.756,31.656c-9.249,5.777-48.126,29.4-68.629,31.388
			c0,0,1.886-39.219-52.846-44.382c0,0,41.729,7.158,47.912,37.015c-1.109,0.657-2.433,1.314-3.839,1.326
			c-3.353,0.037-6.18-0.298-7.049-2.334c-0.002,0.042-0.006,0.081-0.009,0.127c0.021,2.664,3.317,4.786,7.352,4.735
			c1.496-0.01,2.882-0.33,4.033-0.852c0.415,3.447,0.372,7.174-0.235,11.203c0,0,33.543-4.862,69.009-33.289
			c0,0-23.223,37.768-77.613,58.837c0,0,84.926,47.668,91.542,84.325c0,0-59.719-47.43-101.55-51.54
			c0,0-72.938,17.731-119.066-12.671c0,0,74.009,13.622,93.549-20.593c0,0-56.626-29.514-56.483-65.531
			c0,0,51.01,47.876,80.187,43.968l0.076-5.406c-35.656-0.275-81.909-43.165-81.909-43.165c-4.947,38.726,50.106,70.56,50.106,70.56
			c-13.792,25.514-94.305,17.25-94.305,17.25c51.066,39.637,127.86,21.049,127.86,21.049
			c42.248,6.725,103.763,51.122,103.763,51.122c10.988-35.498-84.139-88.936-84.139-88.936
			c47.587-15.893,69.348-55.426,73.533-63.872l20.838,3.45l1.696-3.855l-20.662-1.053L267.397,21.693z"/>
		<path fill="#FFCB05" d="M288.185,13.215c-1.279,1.3-11.693,29.021-13.121,32.875c-0.117,0.29-0.177,0.448-0.177,0.448l3.805-7.431
			C279.624,37.34,289.572,11.832,288.185,13.215z"/>
		<path fill="#FFCB05" d="M142.555,53.867c-3.682-0.667-7.812,0.677-9.691,0.334c-1.88-0.342-9.405-3.853-9.405-3.853
			s4.08,4.846,9.187,5.923c3.25,0.694,5.73-1.238,9.549-0.449c3.813,0.791,6.377,4.099,6.377,4.099l2.391,0.298
			C151.599,57.463,146.23,54.543,142.555,53.867z"/>
		<path fill="#FFCB05" d="M149.547,65.328c0,0-0.486-4.534-6.75-5.876c-4.357-0.939-6.438,0.315-8.191,0.935
			c-1.757,0.608-3.978,2.489-10.964-2.259c0,0,3.448,5.509,10.106,4.867c4.177-0.408,3.139-2.179,8.601-1.182
			c4.404,0.799,4.287,2.837,4.287,2.837L149.547,65.328z"/>
		<path fill="#FFCB05" d="M127.238,69.58c3.427,2.085,7.38,1.854,10.026-0.046c2.986-2.13,7.785,0.085,7.785,0.085
			c-4.075-4.049-8.546-1.83-12.53-0.914c-3.987,0.914-9.395-3.325-9.395-3.325S123.813,67.487,127.238,69.58z"/>
		<path fill="#FFCB05" d="M166.453,69.072c0.244-1.06-0.418-2.11-1.467-2.352c-1.073-0.247-2.127,0.414-2.366,1.48
			c-0.246,1.051,0.426,2.112,1.491,2.347C165.158,70.796,166.21,70.138,166.453,69.072z"/>
	</g>
</g>
</svg>
